<svg xmlns="http://www.w3.org/2000/svg" width="19.117" height="19.559" viewBox="0 0 19.117 19.559"><g transform="translate(-168.95 -83.398)"><path d="M160.335,78.4l-.255,2.283a7.868,7.868,0,0,0-2.852,1.647l-2.105-.925-2.173,3.769,1.859,1.358a7.7,7.7,0,0,0,0,3.294l-1.859,1.358,2.173,3.769,2.105-.925a7.868,7.868,0,0,0,2.852,1.647l.255,2.283h4.346l.255-2.283a7.868,7.868,0,0,0,2.852-1.647l2.105.925,2.173-3.769-1.859-1.358a7.694,7.694,0,0,0,0-3.294l1.859-1.358L169.894,81.4l-2.105.925a7.868,7.868,0,0,0-2.852-1.647l-.255-2.284h-4.346Zm2.173,5.161a4.618,4.618,0,1,1-4.618,4.618A4.618,4.618,0,0,1,162.509,83.559Z" transform="translate(16 5)" fill="#fff"/></g></svg>