<svg xmlns="http://www.w3.org/2000/svg" width="76.24299621582031" height="15.75"><rect id="backgroundrect" width="100%" height="100%" x="0" y="0" fill="none" stroke="none"/><g class="currentLayer" style=""><title>Layer 1</title><g id="svg_6" class="selected" fill="#ffffff" fill-opacity="1" stroke="#ffffff" stroke-opacity="1" opacity="1" filter=""><path d="M38.699887619018554,0.11299999999999956 a1.089,1.089 0 0 0 -0.48500000000000015,-0.11300000000000004 a1.127,1.127 0 0 0 -0.7000000000000003,0.24600000000000008 l-4.584,3.6910000000000007 H29.214887619018555 A1.1280000000000001,1.1280000000000001 0 0 0 28.089887619018555,5.062999999999988 v5.625 a1.1280000000000001,1.1280000000000001 0 0 0 1.125,1.125 h3.712 l4.584,3.6910000000000007 a1.142,1.142 0 0 0 0.7000000000000003,0.24600000000000008 a1.089,1.089 0 0 0 0.48500000000000015,-0.11200000000000004 a1.125,1.125 0 0 0 0.6400000000000003,-1.013 V1.125 A1.109,1.109 0 0 0 38.699887619018554,0.11299999999999956 z" fill="#ffffff" id="svg_7" fill-opacity="1" stroke="#ffffff" stroke-opacity="1" opacity="1" filter=""/><path d="M44.00888761901855,2.7139999999999986 a0.8280000000000003,0.8280000000000003 0 0 0 -1.181,-0.007000000000000006 a0.8510000000000003,0.8510000000000003 0 0 0 -0.007000000000000006,1.2 a5.644,5.644 0 0 1 1.6,3.98 h0 a5.6690000000000005,5.6690000000000005 0 0 1 -1.6,3.98 a0.8510000000000003,0.8510000000000003 0 0 0 0.007000000000000006,1.2 a0.8260000000000003,0.8260000000000003 0 0 0 0.5840000000000003,0.24600000000000008 a0.8370000000000003,0.8370000000000003 0 0 0 0.6000000000000003,-0.253 A7.338,7.338 0 0 0 46.089887619018555,7.88900000000001 h-0.014000000000000005 A7.322,7.322 0 0 0 44.00888761901855,2.7139999999999986 z" fill="#ffffff" id="svg_8" fill-opacity="1" stroke="#ffffff" stroke-opacity="1" opacity="1" filter=""/></g></g><defs><filter id="f001" xmlns:inkscape="http://www.inkscape.org/namespaces/inkscape" inkscape:label="Matte jelly" x="0" y="0" width="1" height="1" inkscape:menu="ABCs" inkscape:menu-tooltip="Bulging, matte jelly covering" color-interpolation-filters="sRGB">
            <feColorMatrix values="1 0 0 0 0 0 1 0 0 0 0 0 1 0 0 0 0 0 0.85 0" result="result0" in="SourceGraphic"/>
            <feGaussianBlur in="SourceAlpha" stdDeviation="7"/>
            <feSpecularLighting surfaceScale="5" specularConstant=".9" specularExponent="25">
                <feDistantLight elevation="60" azimuth="225"/>
            </feSpecularLighting>
            <feComposite operator="atop" in2="result0"/>
        </filter></defs></svg>