<?xml version="1.0" encoding="UTF-8" standalone="no" ?>
<!DOCTYPE svg PUBLIC "-//W3C//DTD SVG 1.1//EN" "http://www.w3.org/Graphics/SVG/1.1/DTD/svg11.dtd">
<svg xmlns="http://www.w3.org/2000/svg" xmlns:xlink="http://www.w3.org/1999/xlink" version="1.1" width="1080" height="1080" viewBox="0 0 1080 1080" xml:space="preserve">
<desc>Created with Fabric.js 5.2.4</desc>
<defs>
</defs>
<g transform="matrix(1 0 0 1 540 540)" id="5447187c-fa9f-4b81-8f62-8d2171be1559"  >
</g>
<g transform="matrix(1 0 0 1 540 540)" id="25836f40-0598-43d5-9e86-946d9ef8eb23"  >
<rect style="stroke: none; stroke-width: 1; stroke-dasharray: none; stroke-linecap: butt; stroke-dashoffset: 0; stroke-linejoin: miter; stroke-miterlimit: 4; fill: rgb(255,255,255); fill-rule: nonzero; opacity: 1; visibility: hidden;" vector-effect="non-scaling-stroke"  x="-540" y="-540" rx="0" ry="0" width="1080" height="1080" />
</g>
<g transform="matrix(1 0 0 1 536.62 540)"  >
<path style="stroke: none; stroke-width: 1; stroke-dasharray: none; stroke-linecap: butt; stroke-dashoffset: 0; stroke-linejoin: miter; stroke-miterlimit: 4; fill: rgb(255,255,255); fill-rule: nonzero; opacity: 1;" vector-effect="non-scaling-stroke"  transform=" translate(-14.62, -18)" d="M 19.61 10.238 C 19.459231288683448 10.163378399990389 19.29322454584259 10.124700540318191 19.125 10.125 C 18.870588784113405 10.125639536812912 18.623878512381484 10.212340575164417 18.425 10.371 L 13.841000000000001 14.062000000000001 L 10.125 14.062000000000001 C 9.50397448043328 14.063650697171493 9.001098919179203 14.566973258924461 9 15.188 L 9 20.813000000000002 C 9.001648444976801 21.43363625290284 9.504363747097162 21.9363515550232 10.125 21.938000000000002 L 13.837 21.938000000000002 L 18.421 25.629 C 18.620448853725925 25.78662654560234 18.86678999738596 25.873197861802865 19.121 25.875 C 19.289145298074885 25.87561039204741 19.455147996203785 25.837275748355786 19.605999999999998 25.763 C 19.996369845978695 25.57648535090867 20.245197357630268 25.182638055122663 20.246 24.75 L 20.246 11.25 C 20.249475579535737 10.817508307291485 20.001200457939646 10.422454182990785 19.61 10.238 Z" stroke-linecap="round" />
</g>
<g transform="matrix(1 0 0 1 547.25 540.02)"  >
<path style="stroke: none; stroke-width: 1; stroke-dasharray: none; stroke-linecap: butt; stroke-dashoffset: 0; stroke-linejoin: miter; stroke-miterlimit: 4; fill: rgb(255,255,255); fill-rule: nonzero; opacity: 1;" vector-effect="non-scaling-stroke"  transform=" translate(-25.24, -18.01)" d="M 24.919 12.839 C 24.764271072507622 12.679702081791133 24.55203756887307 12.589235536293533 24.329967455540423 12.587919286680215 C 24.10789734220777 12.586603037066897 23.894606364809842 12.674547422219682 23.738 12.832 C 23.406043401657165 13.16200398865898 23.402915907909456 13.698145773980158 23.730999999999998 14.032 C 24.767344438194733 15.09639424258345 25.3422466904773 16.52646359513633 25.331 18.011999999999997 L 25.331 18.012 C 25.339553209007637 19.4970245751655 24.765046163464532 20.926110850953965 23.730999999999998 21.991999999999997 C 23.402915907909456 22.325854226019842 23.406043401657165 22.86199601134102 23.738 23.192 C 23.89221906985276 23.348381543037586 24.102369612785758 23.43690386077991 24.322 23.438 C 24.547950661638847 23.438109567140785 24.764347455584193 23.346862252360495 24.922 23.185 C 26.267709771866837 21.801658281338312 27.01427751419091 19.943861459606953 27 18.013999999999996 L 26.986 18.014 C 27.0060083068664 16.083988993490323 26.263146795045838 14.224139780296614 24.919 12.839 Z" stroke-linecap="round" />
</g>
</svg>